<svg width="524" height="534" viewBox="0 0 324 234" fill="none" xmlns="http://www.w3.org/2000/svg">
<g clip-path="url(#clip0)">
<path d="M319.377 98.6627C307.489 54.6282 266.41 22.8414 218.192 21.5665C192.7 20.8924 165.876 28.8559 146.346 56.723C111.434 106.538 148.491 140.962 174.327 157.32C186.808 165.239 198.055 174.76 207.741 185.609C225.192 205.115 258.764 229.353 298.746 191.375C327.725 163.848 327.297 127.994 319.377 98.6627Z" fill="#F2F2F2"/>
<path d="M44.6224 132.047C44.302 131.6 43.9871 131.142 43.6863 130.684L44.1722 130.401C44.469 130.853 44.7797 131.305 45.0957 131.746L44.6224 132.047Z" fill="#3F3D56"/>
<path d="M41.9641 127.8C41.4343 126.821 40.9419 125.809 40.5007 124.793L41.0292 124.589C41.4647 125.592 41.9504 126.59 42.4731 127.556L41.9641 127.8ZM39.3069 121.682C38.9565 120.635 38.6484 119.56 38.3911 118.489L38.9484 118.37C39.2021 119.427 39.5059 120.487 39.8516 121.52L39.3069 121.682ZM37.7595 115.235C37.5976 114.149 37.4816 113.042 37.4144 111.944L37.9848 111.913C38.0509 112.996 38.1655 114.089 38.3252 115.16L37.7595 115.235ZM37.9259 108.649L37.355 108.637C37.3825 107.537 37.4583 106.427 37.5803 105.337L38.1485 105.393C38.028 106.469 37.9531 107.564 37.9259 108.649V108.649ZM38.6534 102.166L38.0923 102.065C38.3098 100.986 38.578 99.9029 38.8894 98.8448L39.44 98.9886C39.1326 100.032 38.8681 101.101 38.6534 102.166V102.166ZM40.5034 95.8835L39.9676 95.6973C40.3715 94.6667 40.8265 93.6389 41.3201 92.6427L41.8377 92.8702C41.3508 93.853 40.9019 94.8668 40.5034 95.8835V95.8835ZM118.731 94.2204C118.284 93.2231 117.788 92.2301 117.254 91.2691L117.76 91.0198C118.301 91.9939 118.805 93.0004 119.257 94.0113L118.731 94.2204ZM43.4318 89.9714L42.9359 89.7045C43.5144 88.7514 44.1426 87.8087 44.8032 86.9023L45.274 87.2068C44.6224 88.1011 44.0025 89.0312 43.4318 89.9714ZM115.523 88.4425C114.908 87.5273 114.245 86.6246 113.552 85.7596L114.008 85.4355C114.71 86.3123 115.383 87.2272 116.006 88.1547L115.523 88.4425ZM47.3512 84.5942L46.9083 84.2543C47.6452 83.4027 48.4283 82.5696 49.2365 81.778L49.6481 82.1508C48.8509 82.9319 48.078 83.7539 47.3512 84.5942ZM111.353 83.2379C110.587 82.429 109.776 81.6403 108.942 80.8937L109.336 80.5038C110.181 81.2605 111.003 82.0598 111.779 82.8795L111.353 83.2379ZM52.1495 79.8927L51.7716 79.4895C52.6456 78.7628 53.5625 78.0612 54.4968 77.4043L54.8385 77.8354C53.9165 78.4837 53.0119 79.1758 52.1495 79.8927ZM106.336 78.7432C105.44 78.0631 104.503 77.4096 103.551 76.8011L103.872 76.3558C104.837 76.9727 105.786 77.6348 106.694 78.3242L106.336 78.7432ZM57.6967 75.9932L57.3938 75.5371C58.3828 74.9544 59.4089 74.4039 60.4438 73.9008L60.7057 74.3789C59.6848 74.8752 58.6725 75.4183 57.6967 75.9932ZM100.607 75.081C99.6031 74.5476 98.565 74.0478 97.5211 73.5955L97.7599 73.1066C98.8179 73.5651 99.8701 74.0718 100.887 74.6123L100.607 75.081ZM63.8454 73.0043L63.6262 72.5075C64.7026 72.0863 65.8106 71.7026 66.9194 71.3672L67.094 71.8795C66.0002 72.2103 64.9072 72.5888 63.8454 73.0043ZM94.3158 72.3552C93.2348 71.9856 92.1233 71.654 91.0124 71.3699L91.1622 70.8508C92.2881 71.1387 93.4148 71.4747 94.5108 71.8495L94.3158 72.3552ZM70.4328 71.0116L70.3039 70.4875C71.4382 70.2397 72.599 70.0336 73.7539 69.8747L73.8364 70.4071C72.6971 70.5639 71.552 70.7673 70.4328 71.0116V71.0116ZM87.6337 70.6461C86.5047 70.4502 85.3507 70.296 84.2039 70.188L84.2607 69.6526C85.4231 69.7621 86.5928 69.9183 87.7372 70.117L87.6337 70.6461ZM77.2814 70.0688L77.2454 69.5319C78.4072 69.4628 79.5917 69.4382 80.7557 69.458L80.7454 69.9961C79.5959 69.9762 78.4279 70.0008 77.2814 70.0688V70.0688Z" fill="#3F3D56"/>
<path d="M120.451 98.8499C120.298 98.3379 120.132 97.8218 119.957 97.316L120.5 97.1491C120.677 97.662 120.846 98.1851 121.001 98.7041L120.451 98.8499Z" fill="#3F3D56"/>
<path d="M116.968 68.7197H116.397C116.397 68.1812 116.407 67.6349 116.427 67.0961L116.998 67.1148C116.978 67.6475 116.968 68.1874 116.968 68.7197Z" fill="#3F3D56"/>
<path d="M117.24 63.8794L116.672 63.8224C116.794 62.7389 116.96 61.6465 117.164 60.5757L117.726 60.6708C117.525 61.729 117.361 62.8086 117.24 63.8794ZM118.456 57.5034L117.903 57.3705C118.189 56.3145 118.519 55.2558 118.885 54.2236L119.427 54.3938C119.065 55.4139 118.739 56.46 118.456 57.5034V57.5034ZM209.552 51.827C209.125 50.8285 208.654 49.8323 208.152 48.8663L208.666 48.6299C209.173 49.6074 209.65 50.6155 210.082 51.626L209.552 51.827ZM120.634 51.3554L120.107 51.1486C120.551 50.1432 121.04 49.1395 121.56 48.1654L122.071 48.4074C121.556 49.3701 121.073 50.3618 120.634 51.3554V51.3554ZM206.53 46.0078C205.955 45.078 205.338 44.1555 204.694 43.266L205.166 42.9628C205.818 43.863 206.442 44.7964 207.023 45.7372L206.53 46.0078ZM123.729 45.5647L123.238 45.2888C123.83 44.3546 124.467 43.4275 125.13 42.5334L125.598 42.8415C124.943 43.7252 124.314 44.6414 123.729 45.5647H123.729ZM202.655 40.6546C201.944 39.8101 201.193 38.9798 200.423 38.1866L200.844 37.8233C201.624 38.6259 202.384 39.4659 203.102 40.3204L202.655 40.6546ZM127.67 40.2516L127.226 39.9127C127.954 39.0662 128.724 38.2342 129.514 37.4398L129.931 37.8076C129.151 38.5928 128.39 39.4151 127.67 40.2516ZM198.01 35.8746C197.18 35.1341 196.311 34.4127 195.428 33.7303L195.79 33.3144C196.684 34.0047 197.563 34.7347 198.403 35.484L198.01 35.8746ZM132.372 35.5218L131.984 35.127C132.832 34.3873 133.719 33.6668 134.621 32.9857L134.979 33.4055C134.087 34.0787 133.21 34.7907 132.372 35.5218V35.5218ZM192.691 31.7646C191.757 31.1428 190.789 30.5451 189.811 29.9882L190.107 29.5279C191.096 30.0914 192.076 30.6962 193.02 31.3254L192.691 31.7646ZM137.738 31.4699L137.414 31.0272C138.365 30.4088 139.351 29.8149 140.347 29.2619L140.637 29.7253C139.653 30.2719 138.678 30.8588 137.738 31.4699V31.4699ZM186.804 28.4107C185.786 27.9208 184.736 27.46 183.684 27.0408L183.907 26.5453C184.971 26.9693 186.033 27.4358 187.064 27.9315L186.804 28.4107ZM143.661 28.1812L143.407 27.6994C144.442 27.2155 145.508 26.7609 146.577 26.3483L146.794 26.8461C145.737 27.2539 144.683 27.7031 143.661 28.1812V28.1812ZM180.467 25.8863C179.387 25.5398 178.278 25.2259 177.171 24.9533L177.315 24.4328C178.436 24.7086 179.558 25.0263 180.651 25.3769L180.467 25.8863ZM150.02 25.7271L149.842 25.2159C150.939 24.877 152.065 24.5713 153.188 24.3074L153.326 24.8294C152.217 25.0901 151.104 25.3921 150.02 25.7271L150.02 25.7271ZM173.812 24.2472C172.689 24.0509 171.543 23.8905 170.408 23.7704L170.472 23.2358C171.621 23.3573 172.78 23.5195 173.916 23.7181L173.812 24.2472ZM156.692 24.1587L156.594 23.6285C157.732 23.4419 158.893 23.2917 160.044 23.1821L160.101 23.7175C158.964 23.8257 157.817 23.9741 156.692 24.1587L156.692 24.1587ZM166.977 23.5237C165.833 23.48 164.67 23.4742 163.535 23.5061L163.518 22.9684C164.666 22.936 165.843 22.9417 167 22.9862L166.977 23.5237Z" fill="#3F3D56"/>
<path d="M211.223 56.4437C211.071 55.9317 210.905 55.4148 210.733 54.9071L211.277 54.7432C211.452 55.2568 211.619 55.7799 211.773 56.2979L211.223 56.4437Z" fill="#3F3D56"/>
<path d="M44.2883 138.725C49.5428 138.725 53.8024 138.424 53.8024 138.053C53.8024 137.682 49.5428 137.381 44.2883 137.381C39.0338 137.381 34.7742 137.682 34.7742 138.053C34.7742 138.424 39.0338 138.725 44.2883 138.725Z" fill="#6C63FF"/>
<path d="M120.163 106.239C125.418 106.239 129.677 105.938 129.677 105.567C129.677 105.196 125.418 104.895 120.163 104.895C114.909 104.895 110.649 105.196 110.649 105.567C110.649 105.938 114.909 106.239 120.163 106.239Z" fill="#6C63FF"/>
<path d="M213.877 72.4089C219.131 72.4089 223.391 72.108 223.391 71.7368C223.391 71.3656 219.131 71.0646 213.877 71.0646C208.622 71.0646 204.363 71.3656 204.363 71.7368C204.363 72.108 208.622 72.4089 213.877 72.4089Z" fill="#6C63FF"/>
<path d="M210.107 69.5302L181.498 96.4778L181.902 96.8582L210.511 69.9106L210.107 69.5302Z" fill="#3F3D56"/>
<path d="M173.204 99.9209H125.158V100.459H173.204V99.9209Z" fill="#3F3D56"/>
<path d="M116.389 103.589L89.5162 128.901L89.9201 129.282L116.793 103.969L116.389 103.589Z" fill="#3F3D56"/>
<path d="M81.3933 132.407H49.2832V132.945H81.3933V132.407Z" fill="#3F3D56"/>
<path d="M40.5545 135.813L8.64639 165.868L9.05026 166.248L40.9584 136.193L40.5545 135.813Z" fill="#3F3D56"/>
<path d="M44.2884 137.65C43.244 137.65 42.223 137.358 41.3546 136.812C40.4862 136.265 39.8093 135.488 39.4096 134.579C39.01 133.671 38.9054 132.671 39.1091 131.706C39.3128 130.741 39.8157 129.855 40.5542 129.159C41.2927 128.463 42.2336 127.99 43.258 127.798C44.2823 127.606 45.3441 127.704 46.309 128.081C47.2739 128.457 48.0986 129.095 48.6788 129.913C49.2591 130.731 49.5688 131.692 49.5688 132.676C49.5672 133.995 49.0104 135.259 48.0204 136.191C47.0305 137.124 45.6883 137.648 44.2884 137.65V137.65ZM44.2884 128.24C43.3569 128.24 42.4464 128.5 41.6719 128.988C40.8975 129.475 40.2938 130.168 39.9374 130.978C39.5809 131.789 39.4876 132.681 39.6693 133.541C39.851 134.402 40.2995 135.192 40.9581 135.813C41.6168 136.433 42.4559 136.855 43.3694 137.027C44.2829 137.198 45.2298 137.11 46.0904 136.774C46.9509 136.438 47.6864 135.87 48.2039 135.14C48.7214 134.411 48.9976 133.553 48.9976 132.676C48.9962 131.5 48.4995 130.372 47.6167 129.541C46.7339 128.709 45.5369 128.241 44.2884 128.24V128.24Z" fill="#3F3D56"/>
<path d="M86.3881 137.65C85.3437 137.65 84.3228 137.358 83.4544 136.812C82.586 136.265 81.9092 135.488 81.5095 134.579C81.1098 133.671 81.0053 132.67 81.209 131.706C81.4128 130.741 81.9157 129.854 82.6542 129.159C83.3927 128.463 84.3336 127.989 85.3579 127.798C86.3822 127.606 87.444 127.704 88.4089 128.081C89.3738 128.457 90.1985 129.095 90.7787 129.913C91.359 130.731 91.6687 131.692 91.6687 132.676C91.6671 133.995 91.1103 135.259 90.1203 136.191C89.1304 137.124 87.7881 137.648 86.3881 137.65ZM86.3881 128.24C85.4567 128.24 84.5462 128.5 83.7717 128.988C82.9973 129.475 82.3937 130.168 82.0372 130.978C81.6808 131.789 81.5875 132.681 81.7692 133.541C81.951 134.402 82.3995 135.192 83.0581 135.813C83.7167 136.433 84.5558 136.855 85.4694 137.027C86.3829 137.198 87.3298 137.11 88.1903 136.774C89.0508 136.438 89.7863 135.87 90.3038 135.14C90.8213 134.411 91.0975 133.553 91.0975 132.676C91.096 131.5 90.5994 130.372 89.7166 129.541C88.8337 128.709 87.6367 128.241 86.3881 128.24V128.24Z" fill="#3F3D56"/>
<path d="M120.163 105.164C119.119 105.164 118.098 104.872 117.23 104.326C116.361 103.779 115.684 103.002 115.285 102.093C114.885 101.185 114.78 100.184 114.984 99.2196C115.188 98.2548 115.691 97.3685 116.429 96.6729C117.168 95.9773 118.109 95.5036 119.133 95.3117C120.157 95.1198 121.219 95.2183 122.184 95.5947C123.149 95.9712 123.974 96.6087 124.554 97.4266C125.134 98.2445 125.444 99.2062 125.444 100.19C125.442 101.509 124.885 102.773 123.895 103.705C122.905 104.638 121.563 105.162 120.163 105.164V105.164ZM120.163 95.7542C119.232 95.7542 118.321 96.0143 117.547 96.5018C116.772 96.9892 116.169 97.682 115.812 98.4925C115.456 99.3031 115.363 100.195 115.544 101.055C115.726 101.916 116.175 102.706 116.833 103.327C117.492 103.947 118.331 104.369 119.245 104.541C120.158 104.712 121.105 104.624 121.965 104.288C122.826 103.952 123.561 103.384 124.079 102.654C124.596 101.925 124.873 101.067 124.873 100.19C124.871 99.0139 124.374 97.8864 123.492 97.0548C122.609 96.2232 121.412 95.7555 120.163 95.7541V95.7542Z" fill="#3F3D56"/>
<path d="M178.199 105.164C177.155 105.164 176.134 104.872 175.265 104.326C174.397 103.779 173.72 103.002 173.321 102.093C172.921 101.185 172.816 100.184 173.02 99.2196C173.224 98.2548 173.727 97.3685 174.465 96.6729C175.204 95.9773 176.145 95.5036 177.169 95.3117C178.193 95.1198 179.255 95.2183 180.22 95.5947C181.185 95.9712 182.009 96.6087 182.59 97.4266C183.17 98.2445 183.48 99.2062 183.48 100.19C183.478 101.509 182.921 102.773 181.931 103.705C180.941 104.638 179.599 105.162 178.199 105.164V105.164ZM178.199 95.7542C177.268 95.7542 176.357 96.0143 175.583 96.5018C174.808 96.9892 174.205 97.682 173.848 98.4925C173.492 99.3031 173.399 100.195 173.58 101.055C173.762 101.916 174.211 102.706 174.869 103.327C175.528 103.947 176.367 104.369 177.28 104.541C178.194 104.712 179.141 104.624 180.001 104.288C180.862 103.952 181.597 103.384 182.115 102.654C182.632 101.925 182.908 101.067 182.908 100.19C182.907 99.0139 182.41 97.8863 181.527 97.0548C180.645 96.2232 179.448 95.7554 178.199 95.7541V95.7542Z" fill="#3F3D56"/>
<path d="M213.877 71.3337C212.833 71.3336 211.812 71.0419 210.943 70.4954C210.075 69.9488 209.398 69.172 208.998 68.2632C208.599 67.3543 208.494 66.3542 208.698 65.3894C208.902 64.4246 209.405 63.5383 210.143 62.8427C210.882 62.1471 211.823 61.6734 212.847 61.4815C213.871 61.2896 214.933 61.3881 215.898 61.7645C216.863 62.141 217.687 62.7785 218.268 63.5964C218.848 64.4143 219.157 65.376 219.158 66.3597C219.156 67.6784 218.599 68.9427 217.609 69.8752C216.619 70.8077 215.277 71.3322 213.877 71.3337V71.3337ZM213.877 61.9239C212.946 61.924 212.035 62.1841 211.261 62.6716C210.486 63.159 209.883 63.8518 209.526 64.6623C209.17 65.4729 209.076 66.3648 209.258 67.2252C209.44 68.0857 209.888 68.8761 210.547 69.4964C211.206 70.1168 212.045 70.5393 212.958 70.7104C213.872 70.8815 214.819 70.7937 215.679 70.4579C216.54 70.1222 217.275 69.5536 217.793 68.8241C218.31 68.0947 218.586 67.237 218.586 66.3597C218.585 65.1837 218.088 64.0562 217.205 63.2246C216.322 62.393 215.125 61.9253 213.877 61.9239V61.9239Z" fill="#3F3D56"/>
<path d="M5.28057 174.393C4.23617 174.393 3.21521 174.101 2.34681 173.554C1.4784 173.008 0.801559 172.231 0.401864 171.322C0.00216945 170.413 -0.102424 169.413 0.101313 168.448C0.305049 167.484 0.807963 166.597 1.54646 165.902C2.28495 165.206 3.22586 164.732 4.25019 164.54C5.27453 164.348 6.33628 164.447 7.30118 164.823C8.26609 165.2 9.09081 165.837 9.67105 166.655C10.2513 167.473 10.561 168.435 10.561 169.419C10.5594 170.737 10.0026 172.002 9.01266 172.934C8.02273 173.867 6.68055 174.391 5.28057 174.393V174.393ZM5.28057 164.983C4.34914 164.983 3.43862 165.243 2.66415 165.73C1.88968 166.218 1.28605 166.911 0.929587 167.721C0.573126 168.532 0.479845 169.424 0.661541 170.284C0.843237 171.145 1.29175 171.935 1.95036 172.555C2.60897 173.176 3.4481 173.598 4.36163 173.769C5.27516 173.941 6.22206 173.853 7.08259 173.517C7.94312 173.181 8.67863 172.613 9.19611 171.883C9.71359 171.154 9.98979 170.296 9.98979 169.419C9.98836 168.243 9.49176 167.115 8.60892 166.284C7.72609 165.452 6.52911 164.984 5.28057 164.983V164.983Z" fill="#3F3D56"/>
<path d="M44.2883 103.327C43.0389 103.327 41.8017 103.558 40.6474 104.009C39.4931 104.459 38.4443 105.119 37.5608 105.951C36.6774 106.784 35.9766 107.771 35.4984 108.859C35.0203 109.946 34.7742 111.111 34.7742 112.288C34.7742 117.238 44.2883 133.572 44.2883 133.572C44.2883 133.572 53.8024 117.238 53.8024 112.288C53.8024 111.111 53.5563 109.946 53.0782 108.859C52.6001 107.771 51.8993 106.784 51.0158 105.951C50.1323 105.119 49.0835 104.459 47.9292 104.009C46.7749 103.558 45.5377 103.327 44.2883 103.327V103.327ZM44.2883 116.993C43.3004 116.993 42.3347 116.717 41.5133 116.2C40.6919 115.683 40.0517 114.948 39.6736 114.089C39.2956 113.229 39.1967 112.283 39.3894 111.37C39.5821 110.458 40.0579 109.619 40.7564 108.961C41.4549 108.303 42.345 107.855 43.3139 107.674C44.2828 107.492 45.2871 107.585 46.1998 107.941C47.1125 108.298 47.8926 108.901 48.4414 109.674C48.9903 110.448 49.2832 111.358 49.2832 112.288C49.2832 113.536 48.757 114.733 47.8202 115.615C46.8835 116.497 45.613 116.993 44.2883 116.993V116.993Z" fill="#6C63FF"/>
<path d="M120.163 69.7204C117.64 69.7204 115.22 70.6646 113.436 72.3452C111.651 74.0258 110.649 76.3053 110.649 78.682C110.649 83.6314 120.163 99.9659 120.163 99.9659C120.163 99.9659 129.677 83.6314 129.677 78.682C129.677 77.5052 129.431 76.3398 128.953 75.2526C128.475 74.1653 127.774 73.1773 126.891 72.3452C126.007 71.513 124.958 70.8529 123.804 70.4025C122.65 69.9522 121.413 69.7204 120.163 69.7204V69.7204ZM120.163 83.3869C119.175 83.3869 118.21 83.111 117.388 82.594C116.567 82.077 115.927 81.3422 115.549 80.4825C115.17 79.6228 115.072 78.6768 115.264 77.7642C115.457 76.8515 115.933 76.0132 116.631 75.3552C117.33 74.6972 118.22 74.2491 119.189 74.0676C120.158 73.886 121.162 73.9792 122.075 74.3353C122.987 74.6914 123.767 75.2944 124.316 76.0682C124.865 76.8419 125.158 77.7515 125.158 78.682C125.158 79.9298 124.632 81.1265 123.695 82.0089C122.758 82.8912 121.488 83.3869 120.163 83.3869V83.3869Z" fill="#6C63FF"/>
<path d="M284.297 41.0131C282.284 46.6291 279.196 51.746 272.903 51.746C266.61 51.746 261.863 46.9313 261.508 41.0131C261.055 33.4508 266.465 30.2489 272.903 30.2802C280.509 30.3172 286.687 34.3484 284.297 41.0131Z" fill="#2F2E41"/>
<path d="M283.998 40.1658H261.508V66.9981H283.998V40.1658Z" fill="#2F2E41"/>
<path d="M284.658 60.1559H286.571C286.571 60.1559 291.247 65.7615 289.121 73.369C286.996 80.9765 288.696 82.3779 288.696 82.3779C288.696 82.3779 291.463 90.6161 288.488 103.028C285.512 115.441 291.247 118.814 291.247 118.814L285.933 108.804L282.958 82.3779L284.658 60.1559Z" fill="#575A89"/>
<path opacity="0.1" d="M284.658 60.8145H286.571C286.571 60.8145 291.247 66.42 289.121 74.0275C286.996 81.635 288.696 83.0364 288.696 83.0364C288.696 83.0364 291.463 91.2747 288.488 103.687C285.512 116.099 291.247 119.472 291.247 119.472L285.933 109.462L282.958 83.0364L284.658 60.8145Z" fill="black"/>
<path d="M277.963 50.4464C277.963 50.4464 276.263 56.8527 277.113 56.8527C277.963 56.8527 280.938 60.256 280.938 60.256L282.851 66.8625L281.364 71.6673L276.263 70.6663L269.886 64.0598L267.974 62.258L266.273 56.4523C266.273 56.4523 268.399 54.0499 266.911 52.0479C265.423 50.046 277.963 50.4464 277.963 50.4464Z" fill="#FBBEBE"/>
<path opacity="0.1" d="M277.963 50.4464C277.963 50.4464 276.263 56.8527 277.113 56.8527C277.963 56.8527 280.938 60.256 280.938 60.256L282.851 66.8625L281.364 71.6673L276.263 70.6663L269.886 64.0598L267.974 62.258L266.273 56.4523C266.273 56.4523 268.399 54.0499 266.911 52.0479C265.423 50.046 277.963 50.4464 277.963 50.4464Z" fill="black"/>
<path d="M226.529 68.2639L221.853 61.0568C221.853 61.0568 216.805 50.5376 213.192 54.3413C209.579 58.1451 218.665 65.8616 218.665 65.8616L223.34 71.6673L226.529 68.2639Z" fill="#FBBEBE"/>
<path d="M288.59 130.926L285.189 154.349C285.189 154.349 285.614 156.151 281.364 162.757C277.113 169.364 265.636 183.778 265.636 183.778L262.235 177.772C262.235 177.772 266.273 158.753 273.287 154.749L272.437 125.921L288.59 130.926Z" fill="#FBBEBE"/>
<path opacity="0.1" d="M288.59 130.926L285.189 154.349C285.189 154.349 285.614 156.151 281.364 162.757C277.113 169.364 265.636 183.778 265.636 183.778L262.235 177.772C262.235 177.772 266.273 158.753 273.287 154.749L272.437 125.921L288.59 130.926Z" fill="black"/>
<path d="M262.235 175.37L266.911 183.778C266.911 183.778 263.085 193.988 264.573 194.989C266.061 195.99 267.974 204.999 263.935 203.998C259.897 202.997 256.709 198.993 256.709 198.392C256.709 197.792 259.047 189.383 257.772 187.381C256.496 185.379 255.646 184.779 255.646 184.779L252.458 189.784L251.396 189.183L256.709 180.775C256.709 180.775 257.347 179.173 259.897 178.172L262.235 175.37Z" fill="#2F2E41"/>
<path opacity="0.1" d="M262.235 175.37L266.911 183.778C266.911 183.778 263.085 193.988 264.573 194.989C266.061 195.99 267.974 204.999 263.935 203.998C259.897 202.997 256.709 198.993 256.709 198.392C256.709 197.792 259.047 189.383 257.772 187.381C256.496 185.379 255.646 184.779 255.646 184.779L252.458 189.784L251.396 189.183L256.709 180.775C256.709 180.775 257.347 179.173 259.897 178.172L262.235 175.37Z" fill="black"/>
<path d="M272.486 127.603C272.486 127.603 274.137 149.744 270.524 155.55V184.378L265.636 184.979C265.636 184.979 255.764 169.717 259.377 154.702C262.99 139.687 255.646 125.921 255.646 125.921L272.486 127.603Z" fill="#FBBEBE"/>
<path d="M271.268 55.3512C276.198 55.3512 280.195 51.5867 280.195 46.9429C280.195 42.2991 276.198 38.5346 271.268 38.5346C266.338 38.5346 262.341 42.2991 262.341 46.9429C262.341 51.5867 266.338 55.3512 271.268 55.3512Z" fill="#FBBEBE"/>
<path d="M280.301 69.0647L271.374 58.4543L266.273 55.2511L264.148 57.8537L258.197 59.4553C258.197 59.4553 254.371 60.2561 250.333 64.6604C246.295 69.0647 239.068 71.6673 239.068 71.6673L233.117 70.6663C233.117 70.6663 226.103 67.6634 226.103 66.8626C226.103 66.0618 219.94 72.2679 221.428 74.6703C222.915 77.0727 226.103 80.0756 227.804 81.6772C229.504 83.2788 230.142 87.8833 240.556 86.4819C250.97 85.0805 254.796 80.2758 254.796 80.2758C254.796 80.2758 256.709 89.4849 262.235 91.2867C267.761 93.0884 285.827 94.2896 285.827 94.2896L289.653 82.2778C289.653 82.2778 293.903 77.0727 288.165 69.4652C288.165 69.4652 288.055 65.2105 287.438 62.3793C287.198 61.2781 286.881 60.3922 286.464 60.0559C284.977 58.8547 277.113 56.8527 277.113 56.8527C277.113 56.8527 278.388 60.8567 279.026 61.0568C279.663 61.257 281.151 68.0637 280.301 69.0647Z" fill="#575A89"/>
<path d="M251.714 128.824C262.418 128.123 268.649 129.775 271.429 131.034C271.946 131.254 272.433 131.532 272.879 131.863C273.083 132.025 273.181 132.151 273.181 132.227C273.181 132.828 287.846 134.029 293.159 132.828C298.473 131.626 289.546 105.801 287.208 103.599C284.87 101.397 286.131 93.3367 286.131 93.3367C286.131 93.3367 281.47 92.3877 280.195 92.7882C278.919 93.1886 272.331 92.1876 269.993 90.9864C267.655 89.7852 264.679 90.586 262.766 90.1856C261.912 90.0074 261.481 90.3077 261.266 90.6961C260.932 91.2787 260.427 91.7588 259.812 92.0794C255.3 94.5279 251.678 111.457 248.951 120.816C245.976 131.026 251.714 128.824 251.714 128.824Z" fill="#2F2E41"/>
<path d="M271.374 182.577L272.224 186.981C272.224 186.981 276.688 192.987 275.412 197.992C275.412 197.992 276.475 204.598 280.301 206.4C284.127 208.202 280.938 212.406 277.325 212.206C273.712 212.006 270.312 212.406 269.886 211.405C269.461 210.404 266.911 200.594 266.911 200.594L266.213 212.074L264.088 212.274L264.786 198.993C264.786 198.993 263.085 195.99 265.423 190.985L264.833 183.303C264.833 183.303 270.737 184.579 271.374 182.577Z" fill="#2F2E41"/>
<path opacity="0.1" d="M271.429 131.034C271.946 131.254 272.433 131.532 272.879 131.863C272.992 129.971 273.642 118.53 272.862 118.714L271.429 131.034Z" fill="black"/>
<path d="M267.573 35.3642C267.573 35.3642 267.474 34.8459 263.607 36.2116C259.741 37.5773 257.423 47.6556 259.356 53.5736C260.136 55.9586 259.502 57.6781 258.467 58.8812C254.586 63.3961 256.114 70.1774 261.768 72.4991C261.927 72.5646 262.09 72.6294 262.256 72.6935L264.673 74.0592C264.673 74.0592 261.592 70.2412 263.134 65.3574C264.473 61.1962 264.638 56.7783 263.614 52.5386C263.437 51.8234 263.236 51.0862 263.008 50.3338C261.074 43.9605 262.015 44.6965 268.781 38.3233C268.781 38.3233 272.647 41.0547 276.03 42.4204C279.413 43.7861 282.313 45.1518 279.897 49.7041C277.48 54.2565 271.681 58.3536 275.547 64.2716C279.413 70.1897 279.897 67.9135 279.413 70.1897L278.93 72.4658L281.83 69.7344L279.897 73.3763C279.897 73.3763 286.179 73.3763 288.113 68.824L289.079 69.7344C289.079 69.7344 292.946 63.3611 285.696 57.4431C285.696 57.4431 283.28 56.0774 286.663 51.525C290.046 46.9727 287.448 37.1852 283.098 35.3642C278.748 33.5433 267.573 35.3642 267.573 35.3642Z" fill="#2F2E41"/>
<path d="M272.903 32.5398C275.387 32.5398 277.401 30.643 277.401 28.3031C277.401 25.9633 275.387 24.0665 272.903 24.0665C270.419 24.0665 268.405 25.9633 268.405 28.3031C268.405 30.643 270.419 32.5398 272.903 32.5398Z" fill="#2F2E41"/>
<path d="M267.505 26.0436C267.505 24.9933 267.92 23.9805 268.668 23.2017C269.416 22.4228 270.444 21.9333 271.553 21.8283C271.405 21.8144 271.256 21.8069 271.104 21.8069C269.911 21.8069 268.767 22.2532 267.923 23.0478C267.08 23.8423 266.606 24.9199 266.606 26.0436C266.606 27.1672 267.08 28.2448 267.923 29.0393C268.767 29.8339 269.911 30.2802 271.104 30.2802C271.256 30.2802 271.405 30.2727 271.553 30.2588C270.444 30.1538 269.416 29.6643 268.668 28.8855C267.92 28.1066 267.505 27.0938 267.505 26.0436V26.0436Z" fill="#2F2E41"/>
<path d="M213.877 37.4585C212.628 37.4585 211.39 37.6903 210.236 38.1406C209.082 38.591 208.033 39.2511 207.149 40.0833C206.266 40.9154 205.565 41.9034 205.087 42.9906C204.609 44.0779 204.363 45.2433 204.363 46.4201C204.363 51.3695 213.877 67.704 213.877 67.704C213.877 67.704 223.391 51.3695 223.391 46.4201C223.391 45.2433 223.145 44.0779 222.667 42.9906C222.189 41.9034 221.488 40.9154 220.604 40.0833C219.721 39.2511 218.672 38.591 217.518 38.1406C216.364 37.6903 215.126 37.4585 213.877 37.4585V37.4585ZM213.877 51.125C212.889 51.125 211.923 50.849 211.102 50.3321C210.281 49.8151 209.64 49.0803 209.262 48.2206C208.884 47.3609 208.785 46.4149 208.978 45.5022C209.171 44.5896 209.646 43.7513 210.345 43.0933C211.044 42.4353 211.934 41.9872 212.903 41.8057C213.871 41.6241 214.876 41.7173 215.788 42.0734C216.701 42.4295 217.481 43.0325 218.03 43.8062C218.579 44.58 218.872 45.4896 218.872 46.4201C218.872 47.6679 218.346 48.8646 217.409 49.747C216.472 50.6293 215.202 51.125 213.877 51.125V51.125Z" fill="#6C63FF"/>
<path d="M137.18 204.204C140.023 204.204 142.328 202.033 142.328 199.355C142.328 196.677 140.023 194.506 137.18 194.506C134.337 194.506 132.032 196.677 132.032 199.355C132.032 202.033 134.337 204.204 137.18 204.204Z" fill="#F1F1F1"/>
<path d="M169.21 183.693C172.053 183.693 174.358 181.522 174.358 178.844C174.358 176.165 172.053 173.994 169.21 173.994C166.366 173.994 164.062 176.165 164.062 178.844C164.062 181.522 166.366 183.693 169.21 183.693Z" fill="#F1F1F1"/>
<path d="M129.6 164.594C132.443 164.594 134.748 162.423 134.748 159.745C134.748 157.067 132.443 154.896 129.6 154.896C126.757 154.896 124.452 157.067 124.452 159.745C124.452 162.423 126.757 164.594 129.6 164.594Z" fill="#F1F1F1"/>
</g>
<defs>
<clipPath id="clip0">
<rect width="324" height="234" fill="white"/>
</clipPath>
</defs>
</svg>
