<svg width="72" height="72" viewBox="0 0 72 72" fill="none" xmlns="http://www.w3.org/2000/svg">
<path d="M67.74 22.05L37.425 5.691C36.534 5.211 35.463 5.211 34.575 5.691L4.27501 22.05C2.81701 22.842 2.27401 24.66 3.06001 26.118C3.60001 27.123 4.63501 27.693 5.70001 27.693C6.18001 27.693 6.67201 27.579 7.12501 27.333L9.32701 26.145L14.097 59.895C14.745 63.537 18.027 66.081 22.077 66.081H49.923C53.973 66.081 57.255 63.537 57.909 59.817L62.673 26.142L64.884 27.336C66.339 28.125 68.16 27.582 68.946 26.124C69.735 24.666 69.186 22.845 67.734 22.059L67.74 22.05ZM36 46.305C30.615 46.305 26.25 41.94 26.25 36.555C26.25 31.17 30.615 26.805 36 26.805C41.385 26.805 45.75 31.17 45.75 36.555C45.75 41.94 41.385 46.305 36 46.305Z" fill="#FCF8F8"/>
</svg>
